<?xml version="1.0" encoding="utf-8"?>
<!-- Generator: Adobe Illustrator 21.1.0, SVG Export Plug-In . SVG Version: 6.00 Build 0)  -->
<svg version="1.1" id="Livello_1" xmlns="http://www.w3.org/2000/svg" xmlns:xlink="http://www.w3.org/1999/xlink" x="0px" y="0px"
	 viewBox="0 0 727.2 385.9" style="enable-background:new 0 0 727.2 385.9;" xml:space="preserve">
<style type="text/css">
	.st0{fill:#039FE3;}
	.st1{fill:#898988;}
	.st2{fill:#E30211;}
	.st3{fill:#FFED02;}
	.st4{fill:#242321;}
	.st5{fill:#FFFFFE;}
</style>
<g>
	<path class="st0" d="M81,386.7c-3.3-0.5-6.6-1-9.7-2.5c-0.8-0.4-1.3-0.2-2,0.1c-2.2,1.2-4.5,1.5-7,1.5c-1.5,0-3,0-4.6,0
		c-3.1,0-5.9-0.9-8.3-2.7c-1-0.7-1.6-0.9-2.6-0.1c-2.5,1.9-5.3,2.8-8.5,2.8c-2,0-4,0.1-6,0c-6-0.3-10.4-3.2-12.6-8.7
		c-5.6-13.9-11-28-16.3-42c-3.4-8.9,3.3-18.6,12.9-18.9c2-0.1,4,0,6,0c5.6,0,9.8,2.4,12.7,7.2c0.2,0.3,0.3,0.5,0.5,0.8
		c0,0.1,0.1,0.1,0.1,0.2c0.7,0,0.8-0.7,1.1-1.2c2.9-4.5,7-6.9,12.4-7c4.6-0.1,9.1,0,13.7,0c6.2,0,11.2,3.5,13.5,9.4
		c0.7,1.8,0.7,1.8,2.7,1.6c1.8-0.2,3.5-0.4,5.3-0.2c1.1,0.1,1.6-0.2,1.9-1.2c0.6-2,1.8-3.8,3.3-5.3c2.7-2.7,6-4.1,9.9-4.2
		c1.7,0,3.4,0,5,0c6.5,0,11.5,3.6,13.7,9.7c0.7,2,0.7,2,2.7,1.6c2.8-0.5,5.5-0.9,8.3-0.4c1.2,0.2,1.6-0.2,2.1-1.3
		c2.4-6.3,7.3-9.6,14-9.6c1.5,0,3,0,4.6,0c7.5,0.1,13.4,5.7,14,13.1c0.1,2,0.1,3.9,0.2,5.9c0.8,0.2,1-0.3,1.3-0.6
		c4.5-4.5,10.1-6.6,16.3-7.4c2.8-0.4,5.6-0.5,8.4-0.1c1.1,0.2,1.7-0.1,2.1-1.3c2.4-6.3,7.2-9.6,13.9-9.7c1.4,0,2.7,0,4.1,0
		c3.5-0.1,6.6,0.9,9.3,3.2c0.8,0.7,1.4,1,2.4,0.1c2.9-2.4,6.2-3.5,10-3.3c1.8,0.1,3.5,0,5.3,0c5,0.2,8.9,2.4,11.6,6.5
		c0.4,0.5,0.7,1.1,1,1.6c0.8,0.1,0.9-0.7,1.1-1.1c2.9-4.7,7.1-7,12.6-7.1c1.8,0,3.5-0.1,5.3,0c6.2,0.2,10.6,3.1,13.1,8.8
		c0.6,1.4,1.3,2,2.7,2c4,0.2,7.9,1.4,11.4,3.4c0.7,0.4,1.3,0.4,2,0c3.7-2.1,7.7-3.1,11.9-3.5c2.7-0.2,5.3,0,7.9,0.5
		c1.1,0.2,1.7,0,2.3-1c1.3-2,3-3.5,5.1-4.7c1.5-0.8,2.9-1.7,4.3-2.6c7.6-4.5,16.9-1.5,20.5,6.6c0.9,2,1.1,2.2,3.2,1.7
		c4.4-1.1,8.6-0.6,12.7,0.9c1.3,0.5,2.3,0.2,3.5-0.1c11.1-3.1,21-1.1,29.4,7.1c0.8,0.8,1.3,1.8,2.3,2.4c0.6-0.6,0.7-1.3,1-2
		c5.8-14.2,18.7-20.5,31.4-20.3c9.6,0.1,17.6,3.6,23.7,11.1c0.6,0.8,1.3,1.1,2.3,1c1-0.1,2.1,0.1,3.1-0.2c4.3-1.1,8.6-0.6,12.7,1
		c1,0.4,1.9,0.4,3,0c7.9-2.6,15.6-2.1,23,1.8c1,0.5,1.7,0.4,2.6-0.1c9.4-4.7,18.8-4.5,28.1,0.2c1.1,0.5,1.8,0.5,2.8,0
		c8.9-4.6,17.9-4.8,26.9-0.3c1,0.5,1.7,0.5,2.7,0c7.9-4,16.1-4.3,24.3-1c0.9,0.4,1.6,0.4,2.5-0.1c2-1.1,4.2-1.5,6.5-1.4
		c3,0.1,6-0.1,9.1-0.6c3.3-0.5,6.5,0.2,9.6,1.4c1.2,0.4,2.2,0.4,3.4,0c17.2-5.6,34.6,4.9,36.8,23.6c0.5,4.3,0.4,8.7-0.2,12.9
		c-0.8,5.9-3.8,10.8-8.2,14.8c-3.8,3.5-8.4,5.5-13.4,6.4c-0.6,0.1-1.3-0.1-1.7,0.6c-1.8,0-3.5,0-5.3,0c-4.9-0.7-9.7-1.7-14-4.5
		c-0.9-0.6-1.4-0.2-2.1,0.3c-2.8,2.4-6,3.4-9.7,3.3c-1.3,0-2.6,0-3.8,0c-2.3,0.1-4.6-0.3-6.7-1.3c-0.5-0.2-1-0.6-1.6-0.3
		c-2.9,1.3-6.1,1.7-9.2,2.5c-1.4,0-2.9,0-4.3,0c-4.4-0.6-8.7-1.5-12.6-3.7c-0.7-0.4-1.3-0.2-2,0.2c-3.7,2.1-7.7,3-11.9,3.5
		c-1,0-1.9,0-2.9,0c-4.4-0.6-8.7-1.5-12.5-3.8c-0.8-0.5-1.3-0.3-2,0.1c-3.2,1.9-6.8,2.8-10.4,3.3c-0.7-0.1-1.4,0-2,0.4
		c-1.1,0-2.2,0-3.4,0c-4.4-0.5-8.8-1.3-12.8-3.5c-0.9-0.5-1.6-0.3-2.4,0.1c-3,1.6-6.3,2.5-9.7,3c-0.7-0.1-1.4,0-2,0.4
		c-1.1,0-2.2,0-3.4,0c-4.9-0.6-9.8-1.7-14-4.5c-0.9-0.6-1.4-0.4-2.1,0.2c-2.8,2.4-6,3.5-9.7,3.4c-1.7,0-3.4,0-5,0
		c-1.5,0-3,0-4.2-0.8c-2.8-1.9-5.4-1.4-8.2-0.1c-2.2,1.1-4.8,1-7.2,1.8c-1.9,0-3.8,0-5.8,0c-1-0.2-2-0.3-3.1-0.5
		c-9.7-1.5-17.3-6.2-22.4-14.7c-0.2-0.3-0.3-0.7-0.7-0.8c-0.1,0.1-0.1,0.1-0.2,0.2c-0.2,0.4-0.5,0.8-0.7,1.2
		c-2.3,4.3-5.5,7.8-9.7,10.3c-4.2,2.6-8.8,3.7-13.6,4.3c-1,0-1.9,0-2.9,0c-4.9-0.6-9.6-1.7-13.8-4.4c-0.7-0.5-1.2-0.5-1.9,0.1
		c-3.1,2.6-6.7,3.5-10.7,3.4c-2.5-0.1-5-0.3-7.4,0c-5.2,0.8-10.2,0.2-14.9-2.1c-0.9-0.5-1.7-0.5-2.7,0c-2.7,1.4-5.7,2.1-8.7,2.6
		c-0.5,0.1-0.9,0.3-1.4,0.4c-1.4,0-2.9,0-4.3,0c-4.7-0.7-9.3-1.3-13.4-3.9c-0.7-0.4-1.2-0.1-1.7,0.2c-2.1,1.2-4.3,2-6.6,2.6
		c-1.5,0.4-3.1,0.5-4.6,1.1c-1.4,0-2.9,0-4.3,0c-0.7-0.1-1.4-0.3-2.1-0.4c-4.8-0.7-9.3-2.2-13.2-5.2c-1-0.8-1.4-0.5-2.1,0.3
		c-2.9,3.1-6.5,4.5-10.7,4.4c-1.7,0-3.4,0-5,0c-6.4-0.1-11.3-3.6-13.6-9.5c-2.6-6.7-5.2-13.4-7.8-20.1c-0.2-0.6-0.3-1.2-1-1.6
		c0,5.9,0.1,11.7,0,17.4c-0.1,7.6-6.1,13.7-13.7,13.9c-5.7,0.1-11.5,0.2-17.2-0.1c-2.7-0.1-5.4,0-8,0.6c-0.8,0.2-1.6,0.3-2.4,0.4
		c-1,0-1.9,0-2.9,0c-1.6-0.3-3.3-0.5-4.9-0.9c-4.6-0.9-8.5-3.1-11.8-6.5c-0.4-0.4-0.7-0.9-1.1-1.5c-0.7,1-1.2,1.8-1.7,2.4
		c-2.5,3.2-5.7,5.1-9.8,5.4c-2.7,0.2-5.4,0-8.2,0c-1,0-1.8-0.6-2.8-0.3c-3.2,0.7-6.4,0.3-9.6,0.4c-1.4,0-2.7-0.3-3.9-0.9
		c-1.4-0.7-2.6-0.8-4,0c-1.1,0.6-2.4,0.9-3.7,0.9c-3.3,0-6.6,0.4-9.8-0.3c-0.5-0.1-0.9,0-1.4,0.1c-4.5,0.3-9.1,0.9-13.5-0.8
		c-0.6-0.2-1.1-0.2-1.6,0c-2.6,1-5.4,1.4-8.1,1.9C83.3,386.7,82.2,386.7,81,386.7z M432,372.3c8.1,0.1,13.8-3.4,16.5-10.1
		c1.9-4.5,1.7-3.5-2.2-4.6c-1.9-0.5-1.9-0.5-2.6,1.5c-1.9,5.5-5.8,8.4-11.5,8.4c-5.8,0-10.2-3-12.1-8.4c-1.8-5.4-1.9-10.8-0.1-16.2
		c1.5-4.8,4.8-7.7,9.8-8.5c5.6-0.9,9.9,0.6,12.5,5.3c0.6,1,0.5,2.7,1.8,2.9c1.1,0.2,2.3-0.5,3.5-0.7c1.2-0.2,1.4-0.7,1-1.8
		c-1.5-3.9-3.9-6.9-7.7-8.8c-7.5-3.9-22.1-2.2-26.4,10.7c-2.4,7.2-1.8,14.4,1.5,21.2c2.1,4.3,5.6,7.2,10.2,8.4
		C428.3,372.2,430.3,372.4,432,372.3z M199,371.5c-1.6-3.5-1.4-7.2-1.4-10.9c0-3.7,0-7.4-0.1-11c-0.1-4.3-2-6.8-6-7.9
		c-4.2-1.1-8.4-1-12.5,0.5c-2.3,0.8-4.3,2.3-5.3,4.6c-1.7,3.8-1.5,3.5,2.2,4c1.1,0.1,1.7-0.1,2.1-1.2c0.7-2.2,2.3-3.6,4.6-4
		c1.7-0.3,3.5-0.3,5.3,0c3.1,0.6,4.5,2.4,4.6,5.5c0,1.2-0.3,1.9-1.6,2.2c-2.8,0.6-5.7,1-8.5,1.4c-2.3,0.3-4.6,0.7-6.6,2
		c-3.2,2-4.4,4.9-4,8.6c0.4,3.2,2.7,5.8,6,6.7c4.4,1.1,8.6,0.6,12.4-1.8c0.8-0.5,1.6-1,2.4-1.6c0.9,1,0.3,2.9,1.8,3.2
		c1.2,0.3,2.5,0.1,3.8,0.1C198.5,371.7,198.7,371.6,199,371.5z M590.6,362.9c-0.9-0.5-1.8-0.4-2.6-0.6c-1.7-0.4-2.7,0-3.5,1.7
		c-1.2,2.7-3.5,4-6.5,4.1c-4.9,0.1-8.5-3.1-9.2-8.3c-0.2-1.7-0.1-1.9,1.7-1.9c5.5,0,11,0,16.5,0c4.2,0,4.2,0,3.8-4.1
		c-0.7-7.1-5.6-12.3-12.1-12.7c-7.8-0.5-13.3,3.6-14.9,11.2c-0.6,2.8-0.6,5.7-0.1,8.6c0.9,5.3,3.7,9.1,9,10.8
		c2.6,0.9,5.4,0.9,8.1,0.4C585.9,371.2,589.2,368,590.6,362.9z M35.7,366.4c-0.2-0.4-0.4-0.6-0.5-0.9c-2.4-7.5-5.3-14.9-7.9-22.4
		c-1.3-3.8-2.7-7.5-4-11.3c-0.3-0.7-0.4-1.6-1.5-1.6c-1.6,0.1-3.1-0.2-4.7,0.1c0,1.1,0.5,1.9,0.8,2.7c4.6,11.9,9.2,23.8,13.8,35.7
		c1.3,3.4,0.4,2.8,4.2,2.9c2.7,0,2.3,0.4,3.4-2.3c4.8-12.2,9.6-24.4,14.3-36.6c0.3-0.7,0.7-1.4,0.7-2.3c-1.2-0.4-2.4-0.1-3.5-0.2
		c-1.4-0.2-2,0.4-2.4,1.7c-2,5.6-4.1,11.2-6.2,16.8C40,354.7,37.8,360.5,35.7,366.4z M230.9,330.3c0.4,1.2,0.7,1.8,0.9,2.5
		c4.6,11.8,9.2,23.7,13.8,35.5c1.3,3.5,1.3,3.4,5,3.4c1.5,0,2.1-0.5,2.6-1.8c4.9-12.7,9.9-25.4,14.9-38.1c0.2-0.4,0.5-0.8,0.1-1.4
		c-1-0.3-2-0.1-3.1-0.1c-2,0-2.1,0-2.7,1.8c-4.1,11.2-8.4,22.2-12.3,33.5c-0.1,0.2,0,0.6-0.5,0.6c-0.1-0.2-0.3-0.4-0.4-0.6
		c-3-9.4-6.6-18.7-9.9-28c-0.7-2-1.5-4-2.2-6.1c-0.2-0.7-0.5-1.2-1.3-1.2C234.3,330.3,232.7,330.3,230.9,330.3z M500.7,363
		c-1-0.6-1.9-0.6-2.7-0.7c-2.2-0.3-2.2-0.3-3.3,1.7c-1.5,2.8-3.8,4.2-7,4.2c-4.2,0-7.3-2.4-8.5-6.7c-0.9-3.2-0.7-3.4,2.5-3.4
		c5.8,0,11.5,0,17.3,0c2.1,0,2.1,0,2.1-2.1c0-1.9-0.3-3.7-0.9-5.4c-1.8-5.6-6.3-9.2-12-9.3c-6.5-0.2-11.5,2.9-13.5,8.6
		c-1.6,4.4-1.6,9-0.3,13.4c1.1,3.6,3.3,6.4,6.8,7.9c4.2,1.8,8.4,1.8,12.6,0.2C497.5,369.7,499.7,366.8,500.7,363z M642,362.8
		c-1-0.2-1.8-0.4-2.7-0.5c-2.2-0.3-2.2-0.3-3.3,1.7c-1.5,2.8-3.8,4.2-7,4.2c-4.7,0-8.3-3.4-8.9-8.4c-0.2-1.6-0.1-1.8,1.6-1.8
		c4.2,0,8.5,0,12.7,0c2.1,0,4.2-0.1,6.2,0c1.3,0.1,1.6-0.4,1.6-1.7c0-1.8-0.2-3.7-0.7-5.5c-1.5-5.7-6.2-9.5-11.9-9.8
		c-6.7-0.3-11.8,2.9-13.9,8.8c-1.4,4-1.4,8-0.5,12.1c1.3,5.6,5.1,9.3,10.8,10.2c2.5,0.4,5.1,0.4,7.6-0.4
		C638,370.4,640.8,367.4,642,362.8z M267.8,356.7c0,0.6,0,1.1,0,1.7c0.4,4.3,1.5,8.2,5,11c3.2,2.6,6.9,3.2,10.8,2.8
		c5.8-0.6,10.1-4.3,11.5-10c0.6-2.3,0.8-4.7,0.6-7.1c-0.7-9.4-6.5-14.7-15.5-14c-5.5,0.4-10,3.9-11.7,9.2
		C268.1,352.4,267.8,354.5,267.8,356.7z M364.3,356.6c0,1-0.1,2.1,0,3.1c0.6,5.3,3,9.4,8.1,11.6c2.6,1.1,5.3,1.3,8,0.9
		c5.9-0.7,10.1-4.7,11.3-10.5c0.5-2.2,0.5-4.4,0.4-6.7c-0.3-9.1-6.8-14.8-15.8-13.9c-5.4,0.5-9.8,4.1-11.3,9.3
		C364.3,352.4,364.1,354.5,364.3,356.6z M517.7,372.2c0.8,0,1.6,0.1,2.4,0c3.6-0.5,6.8-1.7,8.8-5c2.7-4.6,1-9.7-4-11.6
		c-1.6-0.6-3.3-1.1-5-1.6c-2-0.6-4-1.1-6-1.7c-2.1-0.7-2.9-1.8-2.9-3.4c0.1-1.5,1.2-2.7,3-3.3c1.6-0.5,3.2-0.4,4.8-0.3
		c2.2,0.2,4,1.2,4.7,3.4c0.4,1.2,1,1.4,2.1,1.1c0.6-0.2,1.3-0.2,1.9-0.2c1.1-0.1,1.4-0.5,1.1-1.6c-0.7-2.7-2.2-4.8-4.9-5.8
		c-3.9-1.5-7.8-1.7-11.7-0.4c-3.7,1.2-6.1,4.3-6.1,7.8c0,3.5,1.9,6,5.7,7.5c2.5,0.9,5,1.5,7.6,2.2c1.2,0.3,2.3,0.6,3.4,1.1
		c2.1,0.9,2.7,3,1.6,5c-0.5,0.9-1.3,1.7-2.3,2c-2.7,1-5.5,1-8.2-0.1c-1.5-0.7-2.5-1.9-3.1-3.5c-0.7-1.8-0.7-1.8-2.7-1.6
		c-0.6,0.1-1.1,0.3-1.6,0.3c-1,0.1-1.1,0.7-0.9,1.5c1,3.8,3.3,6.5,7.2,7.6C514.3,372.2,516,372.4,517.7,372.2z M312.3,372.3
		c3,0.1,5.8-0.4,8.3-2.1c2.9-1.9,4.3-4.7,4.1-8.1c-0.3-3.5-2.4-5.6-5.7-6.7c-2.7-0.8-5.4-1.6-8-2.4c-1.2-0.4-2.5-0.6-3.6-1.3
		c-2.1-1.3-2.3-3.6-0.5-5.2c2.2-2,8-1.8,10.1,0.2c0.4,0.4,0.7,0.9,1,1.3c1,1.8,1,1.8,3.1,1.6c0.5-0.1,1-0.1,1.4-0.1
		c0.7-0.1,1-0.4,0.9-1.1c-0.5-2-1.2-3.8-2.9-5.1c-4-3-12.1-3.2-16.2-0.4c-2.5,1.7-3.7,4.1-3.6,7.2c0.2,3.1,1.8,5.2,4.6,6.5
		c1.2,0.5,2.4,0.9,3.6,1.3c2.5,0.8,5.1,1.4,7.6,2.2c1.6,0.5,2.8,1.4,2.9,3.1c0.1,1.6-0.7,2.9-2.1,3.8c-2.5,1.7-7.7,1.5-10-0.4
		c-0.9-0.7-1.5-1.6-2-2.7c-0.8-2-0.8-2-2.8-1.7c-0.5,0.1-0.9,0.2-1.4,0.3c-1.1,0.1-1.4,0.6-1.1,1.6c1.1,3.9,3.5,6.6,7.5,7.7
		C309.1,372.2,310.7,372.4,312.3,372.3z M117.2,345.1c-0.3-0.7-0.2-1.4-0.2-2c0-1-0.4-1.5-1.4-1.4c-0.2,0-0.3,0-0.5,0
		c-3.1,0-2.8-0.2-2.8,2.6c0,8,0,16,0,24c0,3.9-0.7,3.4,3.4,3.4c1.7,0,1.7,0,1.7-1.8c0-4.9,0-9.8,0-14.6c0-1.3,0-2.5,0.3-3.8
		c0.9-3.9,3.6-6.1,7.5-6.1c3.6,0,5.8,2,6.1,5.6c0.1,0.9,0.1,1.8,0.1,2.6c0,4.9,0,9.8,0,14.6c0,3.8-0.6,3.3,3.5,3.4
		c1.2,0,1.7-0.4,1.7-1.6c-0.1-3.5,0-7,0-10.6c0-3.1,0.1-6.2-0.1-9.4c-0.2-3.6-1.5-6.5-5-8.1c-4-1.8-10.1-1.5-13.5,2.4
		C117.9,344.7,117.7,345.2,117.2,345.1z M539.9,356.9c-0.1-2.3,0.1-4.7,1.1-6.8c1.4-3.1,3.9-4.8,7.4-4.8c3.3,0,5.4,1.6,6.5,4.7
		c0.4,1.1,0.9,1.4,1.9,1.2c0.7-0.2,1.4-0.3,2.1-0.4c1.1-0.1,1.3-0.6,1-1.6c-1.1-3.6-3.3-6.2-6.9-7.4c-4-1.3-7.9-1-11.6,0.9
		c-1.9,1-3.5,2.3-4.4,4.3c-3.1,6.2-3.4,12.7-0.3,18.9c2.7,5.3,7.5,6.9,13.1,6.4c5-0.5,8.4-3.3,10.2-8c1.1-2.8,1-2.9-2.1-3.3
		c-2-0.3-2.1-0.3-2.6,1.6c-1.1,4-3.9,5.9-8.1,5.5c-3.2-0.3-5.6-2.4-6.6-5.7C540,360.5,539.8,358.7,539.9,356.9z M74.3,356.8
		c0-2.6,0.2-5.1,1.5-7.4c1.6-3,4.2-4.3,7.5-4.1c3,0.1,5,1.7,5.9,4.4c0.5,1.4,1.3,1.6,2.5,1.3c0.5-0.1,1.1-0.3,1.6-0.3
		c1.2-0.1,1.3-0.7,1-1.6c-1.1-3.7-3.4-6.3-7.2-7.4c-3.9-1.2-7.7-0.8-11.4,1.1c-1.9,1-3.5,2.4-4.4,4.3c-3.1,6.2-3.4,12.5-0.4,18.7
		c2.6,5.3,7.4,7.1,13,6.6c5.1-0.4,8.6-3.2,10.4-8c1-2.7,0.9-2.9-1.9-3.3c-2.2-0.3-2.2-0.3-2.8,1.7c-1.2,3.7-3.4,5.4-6.9,5.5
		c-3.6,0.1-6.3-1.8-7.6-5.1C74.6,361,74.3,358.9,74.3,356.8z M336.8,331.3c-1.8,1-3.2,1.9-4.6,2.7c-0.6,0.3-0.5,0.9-0.5,1.5
		c0,1.6,0,3.2,0,4.8c0,1-0.4,1.4-1.4,1.4c-0.7,0-1.6-0.3-2.1,0.3c-0.7,0.9-0.3,2-0.3,3c0.1,0.9,0.9,0.7,1.5,0.8
		c2.2,0.1,2.2,0.1,2.2,2.2c0,5.4,0,10.7,0,16.1c0,1.3,0.1,2.5,0.3,3.8c0.4,2,1.7,3.2,3.6,3.8c1.2,0.4,2.5,0.6,3.8,0.4
		c4-0.6,3.1,0.2,2.7-3.7c-0.1-0.8-0.4-1.2-1.4-1.2c-3.5,0-3.9-0.3-3.9-3.8c0-5,0-9.9,0-14.9c0-3.2-0.3-2.8,2.8-2.8
		c2.2,0,2.2,0,2.2-2.1c0-2,0-2-2-2c-0.2,0-0.5,0-0.7,0c-2.5,0-2.3,0.1-2.3-2.4C336.8,336.8,336.8,334.2,336.8,331.3z M205.4,350.8
		c0,5.8,0,11.7,0,17.5c0,3.8-0.8,3.4,3.6,3.4c1.2,0,1.6-0.5,1.5-1.6c0-0.5,0-1,0-1.4c0-11.7,0-23.5,0-35.2c0-3.4,0.8-3.2-3.4-3.2
		c-1.7,0-1.7,0.1-1.7,1.8C205.4,338.3,205.4,344.5,205.4,350.8z M351.3,345.3c0-1,0-1.7,0-2.4c0.1-1-0.4-1.3-1.3-1.2
		c-0.8,0-1.6,0-2.4,0c-0.6,0-0.9,0.3-0.9,0.9c0,0.5,0,1,0,1.4c0,8.5,0,16.9,0,25.4c0,2.3,0,2.3,2.4,2.3c3,0,2.8,0.3,2.8-2.6
		c0-4.4,0-8.8,0-13.2c0-2.1,0.3-4.2,1-6.1c1-2.8,3.5-4,6.3-3.3c0.7,0.2,1.3,0.5,2.1,0.7c0.5-1.3,1-2.5,1.4-3.6
		c0.2-0.6,0.1-1-0.5-1.4c-3-2-6.9-1.4-9.2,1.4C352.5,344.1,352.3,344.9,351.3,345.3z M602.1,345.2c-0.2,0-0.3-0.1-0.5-0.1
		c0-0.7,0-1.4,0-2.1c0-0.9-0.4-1.3-1.3-1.3c-0.8,0-1.6,0-2.4,0c-0.6,0-0.9,0.3-0.9,0.9c0,0.6,0,1.1,0,1.7c0,8.2,0,16.5,0,24.7
		c0,3.1-0.3,2.8,2.9,2.8c2.2,0,2.2,0,2.3-2.2c0-4.7,0-9.4,0-14.2c0-1.8,0.2-3.5,0.8-5.2c1.1-3.1,3.6-4.5,6.8-3.5
		c0.5,0.1,0.9,0.6,1.3,0.5c1.4-0.3,1.1-1.8,1.6-2.7c0.3-0.6,1-1.4,0-2.1c-2.7-2-7-1.5-9.1,1C603,343.9,602.6,344.6,602.1,345.2z
		 M460.3,345.5c0-1.1,0-1.9,0-2.6c0-0.5-0.1-1-0.7-1.1c-1-0.1-2.1,0-3.1,0c-0.5,0-0.7,0.4-0.7,0.8c0,0.6,0,1.3,0,1.9
		c0,8.1,0,16.1,0,24.2c0,3.5-0.6,3.1,3.3,3.1c1.7,0,1.7,0,1.7-1.8c0-4.4,0-8.8,0-13.2c0-2.3,0.2-4.6,1-6.8c1-2.9,3.6-4.2,6.5-3.4
		c0.4,0.1,0.8,0.2,1.1,0.4c0.7,0.4,1,0.1,1.3-0.5c0.3-0.9,0.7-1.8,1-2.7c0.3-0.7,0.1-1.2-0.6-1.6c-2.9-1.5-6.7-1.9-9.2,1.6
		C461.6,344.3,461.4,344.9,460.3,345.5z M149.6,356.7c0-4.1,0-8.1,0-12.2c0-3.1,0.3-2.9-2.8-2.9c-2.4,0-2.4,0-2.4,2.3
		c0,8.3,0,16.6,0,24.9c0,3.2-0.4,2.8,3,2.9c2.1,0,2.1,0,2.1-2.1C149.6,365.3,149.6,361,149.6,356.7z M104.6,356.7c0-4,0-8,0-12
		c0-0.6,0-1.3,0-1.9c0-1.6-1.3-1.2-2.1-1.1c-1,0.1-2.6-1-2.9,1.1c-0.1,0.5,0,1.1,0,1.7c0,8.2,0,16.3,0,24.5c0,3.2-0.2,2.8,2.9,2.8
		c2.1,0,2.1,0,2.1-2.1C104.6,365.3,104.6,361,104.6,356.7z M62.9,356.8c0-3.7,0-7.4,0-11c0-0.8,0-1.6,0-2.4
		c-0.1-1.7-0.1-1.7-2.5-1.7c-2.4,0-2.4,0-2.4,1.8c0,0.4,0,0.8,0,1.2c0,8,0,16,0,24c0,3.5-0.5,3.1,3.3,3.1c1.7,0,1.7,0,1.7-1.8
		C62.9,365.5,62.9,361.2,62.9,356.8z M149.6,333.2c-0.1-3,0.6-2.9-3-2.9c-0.1,0-0.2,0-0.2,0c-1.9,0.1-1.9,0.1-1.9,1.8
		c0,0.7,0,1.4,0,2.2c0,1.9,0,1.9,2,1.9C150.1,336.2,149.6,336.6,149.6,333.2z M104.6,333.3c-0.1-3.3,0.5-2.9-3.1-3
		c-1.8,0-1.9,0-1.9,1.8c0,0.6,0,1.3,0,1.9c0,2.1,0,2.1,2.1,2.1C105,336.2,104.6,336.6,104.6,333.3z M62.9,333.5c0-0.3,0-0.6,0-0.9
		c0-2.1,0-2.2-2.3-2.1c-3,0-2.7-0.3-2.7,2.6c0,3.7-0.6,3.1,3.3,3.2c1.2,0,1.8-0.3,1.7-1.6C62.9,334.3,62.9,333.9,62.9,333.5z"/>
	<path class="st1" d="M491.5,386.3c0.1,0.1,0.3,0.2,0.4,0.4c-0.8,0-1.6,0-2.4,0C490.1,386.3,490.8,386.3,491.5,386.3z"/>
	<path class="st1" d="M521.7,386.3c0.1,0.1,0.3,0.2,0.4,0.4c-0.8,0-1.6,0-2.4,0C520.4,386.3,521,386.3,521.7,386.3z"/>
	<path class="st2" d="M637.3,94.6c0.6-0.8,1.1-1.5,1.8-2.4c-3.6-1.6-7.2-2.8-10.7-4c-15.5-5.3-31.4-9.2-47.7-11.4
		c-16.7-2.3-33.4-2.9-50.3-1.7c-30.1,2.1-58.8,9.6-86.4,21.7c-4.4,1.9-8.9,3.6-13.2,5.7c-5.5,2.7-10.9,5.8-16.2,8.8
		c-5.1,2.9-10.1,5.9-15.1,8.8c-1.1,0.6-2.1,1.4-3.1,2.3c-2.7,2.6-5.9,4.4-8.7,6.7c-3.1-1.9-5.6-4.4-7.3-7.7c-1.8-3.4-1.8-6.9,0.7-10
		c1.4-1.1,2.7-2.2,3.8-3.5c0,0,0,0,0,0c0.2-0.2,0.4-0.4,0.7-0.6c1.8-1.3,3.9-1.7,6.1-1.9c6-0.5,11.1,1.7,15.7,5.2
		c0.6,0.5,1.1,1.2,2.1,1.3c0-4.7,0-9.3,0-14c0-1-0.5-1.4-1.2-1.8c-1.7-0.8-3.4-1.3-5.2-1.9c26.2-18.2,54.9-30.9,86.1-37.7
		c20.2-4.4,40.6-6,61.2-5.1c23.4,1.1,46.3,5.5,68.6,12.5c9.9,3.1,19.6,6.7,29.2,10.8c2.2,0.9,1.9,1.1,3.3-1.1
		c13.3-21.9,23.7-45.1,32-69.3c0.3-0.8,0.5-1.5,0.8-2.2c0-0.1,0.1-0.1,0.3-0.2c0.4,0.5,0.2,1,0.2,1.5c-0.1,14-2.1,27.7-5.4,41.3
		c-3.1,12.7-7.4,25-12.8,36.8c-0.9,1.9-0.9,2,0.9,3.1c9,5.6,17.6,11.9,25.8,18.7c10.3,8.6,19.4,18.3,26.9,29.5
		c2.8,4.3,5.3,8.7,7.4,13.7c-0.8-0.1-1.2-0.7-1.6-1c-11.6-10.5-24.1-19.7-37.3-28.1c-9.5-6-19.2-11.4-29.3-16.3
		c-0.1,0-0.1-0.1-0.2-0.1c-2.2-1-1.9-1.3-3.3,0.9c-1.7,2.7-3.4,5.4-5.1,8.1c-6.2,9.3-13,18-20.6,26.2c-4.4-2.6-8.5-5.5-12.4-8.8
		c-1.6-1.4-3.2-2.9-4.1-4.9c5.3-5.4,10.4-10.8,15.1-16.7c5.1,0.5,9.1,3.4,13.4,6.7c0-5.1,0-9.7,0-14.3c0-0.9-0.5-1.5-1.3-1.8
		C639.6,95.6,638.5,95.1,637.3,94.6z"/>
	<path class="st2" d="M552.9,191.9c-10.5,5.3-21.3,9.7-32.4,13.5c-15,5.2-30.5,8.9-46.2,11.2c-14,2-28,2.7-42.1,2
		c-22.8-1.1-44.8-5.5-65.7-14.8c-8.9-4-17.4-8.8-24.9-15c-0.7-0.5-1.5-1-1.8-1.8l-0.1,0c0.7-0.4,1.2,0.1,1.7,0.3
		c14,6.2,28.8,9.9,43.9,12.2c13,2,26.1,2.7,39.2,2.3c22.4-0.7,44.3-4.5,65.7-10.9c0.3-0.1,0.6-0.2,0.9-0.4c1.1,0,2.2-0.1,3.3-0.1
		c10.7,0,21.4,0,32.1,0c0.6,0,1.3,0,1.9,0c0.7,0,1-0.3,1-1c0-3.3,0-6.7,0-10c0-0.8-0.4-1.1-1.1-1.2c-0.9,0-1.8,0.2-2.6-0.2
		c3.7-1.7,7.4-3.4,11.2-5.1c0.9,2.5,1.7,5.1,3.2,7.4C543.3,185.3,547.5,189.3,552.9,191.9z"/>
	<path class="st2" d="M265.6,95.5c21.8,0.1,40.8,14.1,46.5,34.3c3.3,11.9,2.8,23.8-3.1,34.7c-7.2,13.3-17.9,22.7-33.2,25.6
		c-30,5.7-52.1-14.8-56.7-36c-6.7-31.5,15.6-53.5,37.1-57.6C259.4,95.8,262.7,95.6,265.6,95.5z M265.6,179.3
		c18.7,0.7,37.1-15,36.7-37.3c-0.3-18.2-15.8-35.1-36.6-35.1c-20.5,0-36.7,17.6-36.5,36.5C229.4,163.9,247.3,180,265.6,179.3z"/>
	<path class="st2" d="M199.1,136.7c9.1,9.4,11.3,20.4,7.2,32.4c-3.2,9.4-9.9,15.7-19.8,18.1c-1.9,0.5-3.9,0.7-5.9,0.7
		c-5.9,0-11.8,0-17.8,0c-2.3,0-2,0-2-2.4c0-21.3,0-42.5,0-63.8c0-8.5,0-17,0-25.4c0-2,0-2,1.9-2c8,0.1,15.9,1,23.5,3.9
		c4.1,1.5,7.8,3.7,11,6.7c6.2,6,8.4,13.4,7.2,21.9c-0.4,3.1-1.9,5.8-3.8,8.2C200,135.5,199.5,136.1,199.1,136.7z M180.2,138.5
		c2.9-1.6,5.4-3,7.4-5c5.5-5.3,6.2-12.7,1.8-18.9c-3.3-4.7-8-6.9-13.6-7.5c-2.7-0.3-2.7-0.3-2.7,2.4c0,21.3,0,42.7,0,64
		c0,0.5,0,1,0,1.4c-0.1,0.9,0.4,1.1,1.2,1.1c4.6-0.1,9.1-0.7,13.2-2.9c4.2-2.2,7.2-5.5,8-10.2c1.3-7.6-0.4-14.3-6.6-19.4
		C186.4,141.6,183.6,140.1,180.2,138.5z"/>
	<path class="st3" d="M552.9,191.9c-5.4-2.7-9.6-6.6-12.9-11.7c-1.5-2.3-2.3-4.9-3.2-7.4c-0.5-3.3-0.7-6.7-0.7-10
		c0-20.9,0-41.7,0-62.6c0-0.4,0-0.8,0-1.2c0-2.3,0-2.3,2.3-2.3c2.9,0,5.8,0,8.6,0c1.2,0,1.6,0.4,1.5,1.5c-0.1,0.6,0,1.1,0,1.7
		c0,21.3,0,42.5,0,63.8c0,1,0.1,2.1,0.1,3.1c-0.2,8.3,8.5,15.1,15.3,15.1c7.9,0,16.2-6.1,16.5-14.5c0.2-6.4,0.2-12.8,0-19.2
		c0-1,0.1-1.9,0.1-2.9c0-13.3,0-26.7,0-40c0-2.8-0.2-5.6,0.2-8.3c2.8-0.6,5.7-0.1,8.5-0.3c0.6,0,1.3,0,1.9,0c1-0.1,1.5,0.4,1.4,1.4
		c0,0.6,0,1.1,0,1.7c0,12.5,0,24.9,0,37.4c0,1,0.1,1.9,0.1,2.9c-0.2,9.4-0.2,18.9,0,28.3c-0.7,3.9-1.4,7.7-3.5,11.1
		c-5.5,9.1-13.4,14.4-24.2,14.6C560.9,194.3,556.8,193.7,552.9,191.9z"/>
	<path class="st3" d="M480.8,96.9c0.5,2.1,0.2,3.8,0.2,5.6c0,17.8,0,35.7,0,53.5c0,10.5,0,21,0,31.4c0,0.6,0,1.1,0,1.7
		c0,0.9-0.3,1.3-1.2,1.3c-3.4,0-6.7,0-10.1,0c-0.8,0-1.2-0.3-1.1-1.1c0-0.6,0-1.1,0-1.7c0-6.5,0-13,0-19.4c0-2.1,0-2.2-2.1-2.2
		c-8.2,0-16.5,0-24.7,0c-1.5,0-2.1,0.5-2.6,1.8c-2.5,6.8-4.2,13.7-5.3,20.9c-0.3,1.8-0.3,1.8-2.1,1.8c-2.9,0-5.8,0-8.6,0
		c-2,0-2,0-1.7-2c0.7-4.7,1.6-9.5,2.8-14.1c7.6-27.1,21.8-50,43.5-68C471.8,102.9,476.1,99.8,480.8,96.9z M445.3,153.5
		c0.4,0.5,0.7,0.5,1,0.5c6.9,0,13.8,0,20.6,0c1.5,0,1.6-0.1,1.6-1.9c0-9.5,0-19,0-28.5c0-0.4,0.2-1-0.6-1.3
		C458.7,131.5,451,141.8,445.3,153.5z"/>
	<path class="st2" d="M132.8,187.5c-0.9,0.3-1.6-0.3-2.3-0.6c-30.6-13.2-49.6-36-56.8-68.6c-1.6-7.3-2.3-14.7-2.4-22.1
		c0-1.8,0-1.9,1.8-1.9c2.8,0,5.6,0,8.4,0c2.5,0,2.2-0.1,2.3,2.2c0.1,7.8,1,15.5,3,23c4.3,16.4,12.3,30.5,25.4,41.4
		c2.2,1.8,4.6,3.5,7,5c0.4,0.2,0.7,0.6,1.6,0.4c0-0.7,0-1.6,0-2.4c0-22.3,0-44.6,0-67c0-2.9-0.4-2.6,2.5-2.6c2.6,0,5.1,0,7.7,0
		c2.1,0,1.9,0,1.9,2c0,0.3,0,0.6,0,1c0,29.2,0,58.4,0,87.6C133,185.7,133.1,186.6,132.8,187.5z"/>
	<path class="st3" d="M637.3,94.6c1.2,0.5,2.3,1,3.5,1.5c0.8,0.3,1.3,0.9,1.3,1.8c0,4.6,0,9.2,0,14.3c-4.2-3.4-8.3-6.2-13.4-6.7
		c-1.7-0.3-3.5-0.3-5.3-0.1c-3.4,0.4-6.4,1.7-8.9,4.2c-3.2,3.2-3.6,9.5-0.9,12.6c0.9,2,2.5,3.5,4.1,4.9c3.9,3.3,8.1,6.2,12.4,8.8
		c3,2.2,5.9,4.3,8.8,6.6c5.1,4,9.1,8.8,10.9,15.1c3.5,12.6-2,31.2-21.2,35.5c-9.1,2-18.1,1.1-26.9-1.9c-2.1-0.7-2.1-0.8-2.1-3.1
		c0-3.4,0-6.7,0-10.1c0-0.8,0-1.5,0-2.3c1-0.1,1.5,0.5,2.1,0.9c6.4,3.5,13.2,5.6,20.6,5.1c10.2-0.7,17.1-9,16-19.1
		c-0.3-2.5-1.3-4.6-2.8-6.5c-2.2-2.8-4.7-5.2-7.8-6.9c-1.2-0.7-2.3-1.7-3.5-2.5c-0.9-0.6-1.7-1.4-2.9-1.7c-0.6-0.8-1.5-1.4-2.4-2
		c-5.1-3.6-10.6-6.7-14.6-11.8c0-0.1-0.1-0.1-0.2-0.1c-0.2-0.5-0.5-1-0.8-1.5c-8.2-12.8-2.7-29.5,12.7-35c6.2-2.2,12.5-2,18.8-0.6
		C635.7,94.2,636.5,94.4,637.3,94.6z"/>
	<path class="st3" d="M403,94.1c1.7,0.6,3.5,1.1,5.2,1.9c0.8,0.4,1.2,0.9,1.2,1.8c0,4.6,0,9.2,0,14c-1-0.1-1.5-0.8-2.1-1.3
		c-4.7-3.5-9.7-5.7-15.7-5.2c-2.2,0.2-4.2,0.7-6.1,1.9c-0.3,0.1-0.6,0.1-0.7,0.6c0,0,0,0,0,0c-2,0.4-3.2,1.6-3.8,3.5
		c-2.5,3.2-2.5,6.6-0.7,10c1.7,3.2,4.2,5.7,7.3,7.7c1.3,1.3,2.9,2.2,4.4,3.3c4.8,3.4,9.7,6.8,14.4,10.3c4.6,3.4,8,7.8,10.1,13.2
		c6,15.7-4,33.9-20.5,37.4c-9.1,1.9-18.1,1.2-26.9-1.9c-2.1-0.7-2.1-0.8-2.1-2.9c0-4.1,0-8.1,0-12.2c1-0.4,1.6,0.3,2.2,0.7
		c5.5,2.9,11.3,4.8,17.6,5c4.5,0.1,8.7-0.9,12.4-3.6c6.4-4.5,9.3-15.4,3-22.8c-1.8-2.2-3.9-4-6.2-5.7c-5.5-3.9-11-7.7-16.5-11.5
		c-0.7-0.5-1.4-1.1-2.2-1.4c-3.7-3.2-6.6-6.9-8.8-11.2c-0.5-2.3-1.3-4.6-1.5-7c-1-13.8,9.4-22.7,18.8-24.9c4.6-1.1,9.2-1.1,13.8-0.3
		C400.8,93.7,401.9,93.9,403,94.1z"/>
	<path class="st3" d="M525.7,178c0.8,0.4,1.7,0.2,2.6,0.2c0.8,0,1.1,0.4,1.1,1.2c0,3.3,0,6.7,0,10c0,0.7-0.3,1-1,1
		c-0.6,0-1.3,0-1.9,0c-10.7,0-21.4,0-32.1,0c-1.1,0-2.2,0.1-3.3,0.1c-2-0.1-2.1,0.2-2.1-2.1c0-29.6,0-59.2,0-88.8c0-0.1,0-0.2,0-0.2
		c0.1-2.8-0.2-2.6,2.6-2.6c2.7,0,5.4,0,8.2,0c1.2,0,1.8,0.3,1.7,1.6c-0.1,0.6,0,1.1,0,1.7c0,24.9,0,49.7,0,74.6c0,0.6,0,1.3,0,1.9
		c-0.1,1.1,0.3,1.6,1.5,1.6C510.5,178,518.1,178,525.7,178z"/>
	<path class="st2" d="M141.1,140.9c0-14.5,0-29.1,0-43.6c0-0.6,0-1.1,0-1.7c-0.1-0.9,0.3-1.3,1.2-1.3c3.4,0,6.7,0,10.1,0
		c0.8,0,1.2,0.2,1.2,1.1c0,0.6,0,1.1,0,1.7c0,29.3,0,58.7,0,88c0,3.2,0.4,2.8-2.8,2.8c-2.6,0-5.1,0-7.7,0c-2,0-2,0-2-1.9
		c0-3.9,0-7.8,0-11.8C141.1,163.1,141.1,152,141.1,140.9z"/>
	<path class="st2" d="M580.5,148.2c0.2,6.4,0.3,12.8,0,19.2c-0.3,8.4-8.5,14.5-16.5,14.5c-6.8,0-15.6-6.8-15.3-15.1
		c9.8-5.1,19.2-10.6,28.5-16.5C578.4,149.6,579.4,148.9,580.5,148.2z"/>
	<path class="st2" d="M604.1,131.1c0.1,0,0.2,0.1,0.2,0.1c3.9,5.1,9.5,8.2,14.6,11.8c0.8,0.6,1.7,1.1,2.4,2
		c-4.1,4-8.3,7.9-12.8,11.6c-5.1,4.1-10.2,8.2-15.7,11.8c-0.2-9.4-0.2-18.9,0-28.3c3.3-2.1,6.3-4.8,9.4-7.3
		C602.8,132.2,603.5,131.7,604.1,131.1z"/>
	<path class="st2" d="M368.6,125.8c2.2,4.3,5.1,8.1,8.8,11.2c-3,2.6-6.2,5-9.1,7.8c-10.8,10.3-21.2,21-30.2,33c-0.8,1-1.5,2-2.3,2.9
		l0,0c4.9-10.7,10.7-20.9,16.5-31.1c4.4-7.6,9.5-14.7,14.6-21.8C367.5,127.2,368.1,126.5,368.6,125.8z"/>
	<path class="st4" d="M144.5,253c0,7.9-6.2,14.1-14.1,14.1c-7.8,0-14-6.1-14.1-13.9c-0.1-7.9,6.1-14.1,14.1-14.1
		C138.3,239.1,144.5,245.2,144.5,253z M141.1,253.3c0.1-6-4.5-10.7-10.5-10.7c-6-0.1-10.8,4.5-10.8,10.4
		c-0.1,5.9,4.6,10.7,10.5,10.8C136.2,263.8,141,259.2,141.1,253.3z"/>
	<path class="st4" d="M351.9,239.1c7.8,0,14.1,6.1,14.2,13.8c0.1,7.9-6.2,14.2-14,14.2c-7.9,0-14.2-6.2-14.2-14.1
		C337.9,245.4,344.1,239.2,351.9,239.1z M352.1,242.5c-5.9,0-10.8,4.7-10.8,10.5c0,5.8,4.7,10.6,10.6,10.7
		c5.9,0.1,10.7-4.7,10.8-10.5C362.8,247.4,358,242.6,352.1,242.5z"/>
	<path class="st4" d="M175.2,253.2c0,7.8-6.3,13.9-14.1,13.9c-7.9,0-14.2-6.3-14.1-14.1c0.1-7.8,6.3-13.9,14.1-13.9
		C169.1,239.1,175.2,245.3,175.2,253.2z M171.8,253.1c0-5.9-4.7-10.6-10.6-10.6c-6,0-10.7,4.7-10.7,10.6c0,5.9,4.8,10.6,10.7,10.6
		C167,263.8,171.8,259,171.8,253.1z"/>
	<path class="st4" d="M392,247.4c-5.7-5.8-12.3-6.4-17-1.7c-4.1,4.2-4.1,10.7,0,14.9c4.7,4.7,11.1,4.2,16.9-1.8c0,1.6,0,2.9,0,4.2
		c0,0.8-0.6,1.1-1.1,1.5c-4.5,3.3-10.8,3.6-15.6,0.7c-4.9-3-7.5-8.6-6.7-14.1c1.6-9.9,12.6-15,21.2-9.9c1.5,0.9,2.5,1.9,2.1,3.8
		C391.9,245.6,392,246.3,392,247.4z"/>
	<path class="st4" d="M114.2,259c0,1.4,0,2.7,0,3.9c0,0.8-0.5,1.1-1,1.5c-4.3,3.3-10.6,3.6-15.4,0.8c-4.9-2.9-7.7-8.3-6.9-13.7
		c1.4-10.3,12.5-15.7,21.4-10.4c1.4,0.8,2.2,1.7,1.9,3.4c-0.1,0.8,0,1.6,0,2.9c-3-3.6-6.3-5.3-10.7-4.8c-2.8,0.3-5,1.6-6.8,3.7
		c-3.7,4.2-3.3,10.6,0.8,14.5C102.2,265.2,108.1,264.6,114.2,259z"/>
	<path class="st4" d="M212.8,243.9c-0.4,0.8-0.2,1.6-0.2,2.4c0,6,0,12,0,18c0,0.6,0.3,1.5-0.4,1.7c-0.8,0.3-1.7,0.1-2.6,0.1
		c-0.3,0-0.4-0.4-0.5-0.7c0-0.5,0-1,0-1.4c0-7.3,0-14.6,0-21.8c0-0.6,0-1.1,0-1.8c3.7-0.2,7.1-0.2,10,2.4c4.3,3.9,4.2,9.9-0.3,13.6
		c-0.4,0.4-0.9,0.7-1.4,1c1.1,2.2,2.5,4.2,4.6,5.4c1.9,1.1,1.8,2.5,1.5,4.2c-5.5-1.3-9.4-6.9-10.4-11.5c4.6-2,6.1-3.9,5.5-6.9
		C218.3,245.8,216,244.1,212.8,243.9z"/>
	<path class="st4" d="M242,240.1c0,2.6,0,4.7,0,6.7c0,5.7,0,11.5,0,17.2c0,2.2-0.1,2.2-2.3,2.2c-0.9,0-1.3-0.4-1.3-1.3
		c0-1.4,0-2.9,0-4.3c0-0.9-0.3-1.3-1.2-1.2c-1.8,0-3.7,0.1-5.5,0c-1,0-1.4,0.4-1.6,1.3c-0.4,1.8-0.9,3.5-1.4,5.3
		c-4.3,0.5-3.4-0.1-2.8-3C228.2,253.4,233.4,245.8,242,240.1z M232.2,255.8c2,0.5,3.8,0.2,5.7,0.2c0.5,0,0.6-0.4,0.6-0.8
		c0-2.5,0-5,0-8C235.7,249.9,233.8,252.6,232.2,255.8z"/>
	<path class="st4" d="M305.1,240.5c0.4,0.3,0.2,0.7,0.2,1.1c0.1,7.5,0.1,15,0.1,22.5c0,0.7,0.4,1.6-0.4,1.9
		c-0.8,0.4-1.7,0.2-2.6,0.1c-0.6-0.1-0.5-0.7-0.5-1.2c0-1.4,0-2.9,0-4.3c0-0.9-0.4-1.3-1.3-1.2c-1.8,0-3.7,0-5.5,0
		c-1,0-1.4,0.5-1.7,1.3c-0.4,1.5-0.7,2.9-1.1,4.4c-0.3,1.1-1,1.3-2.7,1.1c-1.2-0.1-0.8-1-0.7-1.6c2-10.2,7.1-18.3,15.9-24.1
		C304.8,240.4,305,240.5,305.1,240.5z M301.8,247.3c-3.2,3-5.5,6.3-6.1,8.7c1.7,0,3.3,0,5,0c0.8,0,1.1-0.4,1.1-1.2
		C301.8,252.4,301.8,250.1,301.8,247.3z"/>
	<path class="st4" d="M416.2,240.3c0,5.5,0,10.8,0,16.1c0,2.8-0.1,5.6,0,8.4c0,1.3-0.5,1.5-1.6,1.4c-0.9-0.1-2,0.3-1.9-1.3
		c0.1-1.4,0-2.9,0-4.3c0-0.8-0.3-1.2-1.1-1.1c-1.3,0-2.6,0-3.8,0c-3.3,0-3.3,0-4.1,3.2c-0.2,0.7-0.4,1.4-0.4,2.1
		c-0.1,1.1-0.5,1.5-1.6,1.5c-2,0-2.2-0.1-1.8-2c2-9.8,7-17.7,15.3-23.4C415.4,240.6,415.6,240.5,416.2,240.3z M412.7,247.5
		c-3,2.4-5.7,6.4-6,8.6c1.4,0,2.9-0.1,4.3,0c1.2,0.1,1.7-0.3,1.7-1.6C412.7,252.2,412.7,250,412.7,247.5z"/>
	<path class="st4" d="M177.7,253c0-3.8,0.1-7.5,0-11.3c0-1.3,0.4-1.7,1.6-1.6c1.7,0.2,3.3,0,5,0.5c4,1.3,6.8,5,6.6,9
		c-0.1,4-3.1,7.5-7.2,8.5c-2.5,0.6-2.5,0.6-2.5,3.2c0,1,0,1.9,0,2.9c0,1.8-1.1,2.5-2.9,1.9c-0.7-0.3-0.6-0.9-0.6-1.4
		c0-2.2,0-4.3,0-6.5C177.7,256.5,177.7,254.7,177.7,253z M181.3,255c3.8-0.4,6.2-2.7,6.2-5.6c0-3-2.5-5.2-6.2-5.5
		C181.3,247.5,181.3,251.2,181.3,255z"/>
	<path class="st4" d="M283.1,260.1c0-2.3,0-4.4,0-6.4c0-3.8,0-7.7,0-11.5c0-2,0-2,1.9-2c0.4,0,0.8,0,1.3,0.1c0,8.6,0,17.1,0,25.6
		c-0.8,0.2-1.4-0.3-2-0.6c-8.6-4.3-13.4-11.3-14.7-20.8c-0.1-1-0.2-1.9-0.3-2.9c-0.1-0.8,0.1-1.3,1.1-1.4c2.2-0.1,2.4-0.1,2.5,2.2
		c0.4,5.9,2.4,11,6.6,15.2C280.5,258.5,281.6,259.4,283.1,260.1z"/>
	<path class="st4" d="M445.5,254.8c-3.1,0-6,0-8.8,0c-1.5,0-1.7,0.3-1.2,1.7c1.3,3.5,3.8,5.8,7.5,6.8c0.4,0.1,0.8,0.1,1.2,0.2
		c0.5,0.2,1.3-0.1,1.4,0.6c0.2,0.8,0.2,1.8,0,2.6c-0.2,0.7-1,0.4-1.5,0.4c-5.8-0.8-9.9-4-11.8-9.5c-2.9-8.3,2.9-17.5,11.4-18.3
		c0.6-0.1,1.4-0.5,1.8,0.2c0.5,0.8,0.3,1.9,0.1,2.8c-0.2,0.7-1,0.4-1.5,0.5c-3.8,0.7-6.6,2.7-8.2,6.2c-0.2,0.4-0.3,0.9-0.5,1.4
		c-0.1,0.3-0.1,0.6,0.2,1.1c2.7,0,5.4,0,8.2,0c1.9,0,1.9,0,1.9,2C445.6,253.7,445.5,254.1,445.5,254.8z"/>
	<path class="st4" d="M196.5,251.3c3,0,5.9,0,8.7,0c1.6,0,1.6,0,1.6,1.8c0,1.2-0.2,1.7-1.5,1.7c-2.6-0.1-5.3,0-7.9,0
		c-0.3,0-0.6-0.1-0.9,0.2c0.4,3.9,3.7,7.4,7.7,8.3c0.5,0.1,1.1,0.2,1.7,0.3c0.7,0.1,0.9,0.5,0.9,1.1c0.2,2.4-0.1,2.6-2.4,2.2
		c-6.5-1.2-11.3-6.6-11.6-12.8c-0.3-6.9,3.7-12.6,10.1-14.5c0.5-0.2,1.1-0.3,1.6-0.3c2.3-0.3,2.4-0.2,2.3,2.2c0,1.2-0.7,1.1-1.5,1.3
		c-4.6,0.8-7.6,3.4-8.9,7.9C196.4,250.8,196.5,250.9,196.5,251.3z"/>
	<path class="st4" d="M322,262.1c1.7,0.6,3.2,1.3,4.8,1.5c3.4,0.4,6-1.7,5.9-4.9c-0.1-1.6-1-2.7-2.2-3.5c-1.7-1.3-3.5-2.5-5.3-3.7
		c-1.7-1.2-2.9-2.8-3.2-4.9c-0.5-3.3,1.8-6.5,5.2-7.3c1.7-0.4,3.3-0.2,5,0.1c1.1,0.2,1.7,0.8,1.5,2c-0.1,0.8,0,1.6,0,2.4
		c-0.7,0.5-1.1-0.2-1.5-0.5c-1.3-0.7-2.7-1-4.2-0.7c-2.6,0.6-3.5,3-1.8,5.1c0.9,1.1,2,1.8,3.1,2.6c1.2,0.8,2.4,1.6,3.5,2.5
		c2.9,2.3,3.9,5.3,2.8,8.7c-1.1,3.3-3.5,5-6.9,5.5c-1.8,0.2-3.7,0-5.5-0.4c-1.1-0.3-1.6-0.8-1.5-2C322.1,263.9,322,263.1,322,262.1z
		"/>
	<path class="st4" d="M251.3,266c0-7.7,0-15.4,0-23.2c-2.4,0.2-4,1.6-5.8,2.6c-1.9-3.8-1.6-3.4,1.6-4.9c4.3-2.1,8.7-1.8,12.9,0.5
		c1.8,1,1.8,1.1,1.1,3c-0.2,0.5-0.4,1-0.7,1.6c-1.8-1-3.4-2.3-5.6-2.8c0,0.8,0,1.5,0,2.2c0,6.3,0,12.6,0,18.9c0,2.5,0.3,2.4-2.5,2.4
		C252,266.1,251.8,266.1,251.3,266z"/>
	<path class="st4" d="M418.4,253.2c0-3.8,0.1-7.7,0-11.5c0-1.3,0.4-1.6,1.6-1.6c1.8,0.1,1.8,0,1.8,1.6c0,6.3,0,12.6,0,18.9
		c0,2,0,2,2.1,2.1c1.5,0,3,0,4.5,0c0.8,0,1.1,0.3,1.1,1.1c0.1,2.2,0.1,2.3-2.1,2.3c-2.6,0-5.1,0-7.7,0c-1.2,0-1.5-0.3-1.5-1.5
		C418.4,260.8,418.4,257,418.4,253.2z"/>
	<path class="st4" d="M397.6,253.1c0,3.8,0,7.5,0,11.3c0,0.6,0.3,1.4-0.5,1.6c-0.8,0.2-1.7,0.2-2.6,0c-0.3-0.1-0.4-0.5-0.4-0.8
		c0-0.7,0-1.4,0-2.2c0-7,0-14.1,0-21.1c0-0.6-0.4-1.4,0.4-1.7c0.9-0.3,1.9-0.3,2.8,0.1c0.5,0.2,0.3,0.8,0.3,1.3
		C397.7,245.5,397.6,249.3,397.6,253.1z"/>
	<path class="st4" d="M263.9,253c0-3.7,0-7.5,0-11.2c0-0.6-0.3-1.4,0.6-1.5c0.8-0.1,1.8-0.3,2.6,0.1c0.4,0.2,0.2,0.7,0.2,1.1
		c0,7.7,0,15.5,0,23.2c0,1.4-0.6,1.6-1.7,1.5c-1,0-1.8,0-1.8-1.5C264,260.8,263.9,256.9,263.9,253z"/>
	<path class="st2" d="M339.8,187c-0.2,0-0.4-0.1-0.4-0.3c0,0,0.1-0.1,0.2-0.1C339.8,186.7,339.9,186.8,339.8,187
		C339.7,187,339.8,187,339.8,187z"/>
	<polygon class="st2" points="335.9,180.7 335.9,180.8 335.9,180.8 	"/>
	<path class="st5" d="M432,372.3c-1.7,0.1-3.7-0.2-5.6-0.7c-4.7-1.2-8.1-4.1-10.2-8.4c-3.3-6.8-3.9-13.9-1.5-21.2
		c4.2-12.9,18.9-14.5,26.4-10.7c3.7,1.9,6.2,5,7.7,8.8c0.4,1.1,0.2,1.6-1,1.8c-1.2,0.2-2.4,0.9-3.5,0.7c-1.3-0.2-1.2-1.9-1.8-2.9
		c-2.6-4.7-6.9-6.2-12.5-5.3c-4.9,0.8-8.2,3.7-9.8,8.5c-1.7,5.4-1.7,10.9,0.1,16.2c1.8,5.4,6.2,8.4,12.1,8.4c5.6,0,9.6-2.9,11.5-8.4
		c0.7-2,0.7-2,2.6-1.5c3.9,1.1,4,0,2.2,4.6C445.7,368.9,440,372.4,432,372.3z"/>
	<path class="st5" d="M199,371.5c-0.4,0.1-0.6,0.2-0.8,0.2c-1.3,0-2.6,0.2-3.8-0.1c-1.4-0.4-0.9-2.2-1.8-3.2
		c-0.8,0.5-1.6,1.1-2.4,1.6c-3.9,2.4-8.1,3-12.4,1.8c-3.4-0.9-5.7-3.5-6-6.7c-0.4-3.7,0.8-6.6,4-8.6c2-1.3,4.3-1.7,6.6-2
		c2.8-0.4,5.7-0.7,8.5-1.4c1.3-0.3,1.6-0.9,1.6-2.2c-0.1-3.1-1.5-4.9-4.6-5.5c-1.7-0.3-3.5-0.3-5.3,0c-2.4,0.4-3.9,1.8-4.6,4
		c-0.4,1.2-1,1.4-2.1,1.2c-3.7-0.5-3.9-0.2-2.2-4c1-2.3,2.9-3.8,5.3-4.6c4.1-1.4,8.3-1.6,12.5-0.5c4,1.1,5.9,3.6,6,7.9
		c0.1,3.7,0,7.4,0.1,11C197.7,364.3,197.4,368,199,371.5z M192.4,356.8c-3.6,1.1-7,1.6-10.4,2.2c-0.8,0.1-1.6,0.4-2.3,0.7
		c-1.7,0.7-2.6,2.1-2.6,3.9c0,1.7,0.8,3.1,2.3,3.9c3.5,2,11.7,0.7,12.9-5.9C192.6,360.1,192.5,358.6,192.4,356.8z"/>
	<path class="st5" d="M590.6,362.9c-1.5,5.1-4.7,8.2-10,9.2c-2.7,0.5-5.4,0.4-8.1-0.4c-5.2-1.7-8.1-5.5-9-10.8
		c-0.5-2.8-0.5-5.7,0.1-8.6c1.6-7.6,7.1-11.7,14.9-11.2c6.5,0.4,11.4,5.6,12.1,12.7c0.4,4.1,0.4,4.1-3.8,4.1c-5.5,0-11,0-16.5,0
		c-1.8,0-1.9,0.2-1.7,1.9c0.7,5.1,4.3,8.4,9.2,8.3c3-0.1,5.3-1.4,6.5-4.1c0.8-1.8,1.9-2.1,3.5-1.7
		C588.9,362.5,589.8,362.4,590.6,362.9z M577.2,353.8C577.2,353.8,577.2,353.8,577.2,353.8c2.3,0,4.6,0,6.9,0c0.8,0,1.4-0.1,1.3-1.2
		c-0.3-4.1-3.6-7.2-7.8-7.3c-4.4-0.1-8.1,2.9-8.6,7c-0.1,1,0.1,1.5,1.2,1.5C572.6,353.7,574.9,353.8,577.2,353.8z"/>
	<path class="st5" d="M35.7,366.4c2.2-5.9,4.3-11.8,6.5-17.6c2.1-5.6,4.2-11.2,6.2-16.8c0.4-1.3,1-1.9,2.4-1.7
		c1.2,0.1,2.4-0.2,3.5,0.2c0,0.9-0.4,1.6-0.7,2.3c-4.8,12.2-9.5,24.4-14.3,36.6c-1.1,2.7-0.7,2.3-3.4,2.3c-3.8,0-2.9,0.6-4.2-2.9
		c-4.7-11.9-9.3-23.8-13.8-35.7c-0.3-0.8-0.8-1.6-0.8-2.7c1.6-0.3,3.1-0.1,4.7-0.1c1.1,0,1.2,0.8,1.5,1.6c1.4,3.8,2.7,7.5,4,11.3
		c2.6,7.5,5.5,14.8,7.9,22.4C35.3,365.8,35.5,366.1,35.7,366.4z"/>
	<path class="st5" d="M230.9,330.3c1.9,0,3.5,0,5,0c0.8,0,1.1,0.5,1.3,1.2c0.7,2,1.5,4,2.2,6.1c3.2,9.3,6.8,18.6,9.9,28
		c0.1,0.2,0.2,0.4,0.4,0.6c0.5,0.1,0.4-0.4,0.5-0.6c3.9-11.2,8.2-22.3,12.3-33.5c0.7-1.8,0.7-1.9,2.7-1.8c1,0,2.1-0.2,3.1,0.1
		c0.4,0.5,0,0.9-0.1,1.4c-5,12.7-10,25.4-14.9,38.1c-0.5,1.3-1.2,1.8-2.6,1.8c-3.7-0.1-3.7,0-5-3.4c-4.6-11.8-9.2-23.7-13.8-35.5
		C231.5,332.2,231.3,331.5,230.9,330.3z"/>
	<path class="st5" d="M500.7,363c-1.1,3.8-3.2,6.7-7,8.2c-4.2,1.7-8.5,1.6-12.6-0.2c-3.5-1.5-5.8-4.3-6.8-7.9
		c-1.3-4.5-1.3-9,0.3-13.4c2.1-5.7,7-8.8,13.5-8.6c5.7,0.2,10.3,3.7,12,9.3c0.6,1.8,0.9,3.6,0.9,5.4c0,2.1,0,2.1-2.1,2.1
		c-5.8,0-11.5,0-17.3,0c-3.2,0-3.4,0.2-2.5,3.4c1.2,4.3,4.3,6.7,8.5,6.7c3.2,0,5.5-1.4,7-4.2c1.1-1.9,1.1-1.9,3.3-1.7
		C498.9,362.4,499.8,362.4,500.7,363z M487.2,353.8c2.2,0,4.5,0,6.7,0c0.2,0,0.3,0,0.5,0c0.7,0,1.3,0,1.2-1c-0.2-3.1-2.3-6-5.3-7.1
		c-5.1-1.8-10.5,1.5-11.2,6.9c-0.1,1,0.3,1.3,1.2,1.3C482.6,353.8,484.9,353.8,487.2,353.8z"/>
	<path class="st5" d="M642,362.8c-1.2,4.7-4,7.6-8.4,9c-2.5,0.8-5.1,0.8-7.6,0.4c-5.6-0.9-9.5-4.5-10.8-10.2
		c-0.9-4-0.9-8.1,0.5-12.1c2.1-5.9,7.1-9.1,13.9-8.8c5.7,0.2,10.4,4.1,11.9,9.8c0.5,1.8,0.6,3.6,0.7,5.5c0,1.2-0.3,1.7-1.6,1.7
		c-2.1-0.1-4.2,0-6.2,0c-4.2,0-8.5,0-12.7,0c-1.7,0-1.8,0.2-1.6,1.8c0.6,5,4.1,8.4,8.9,8.4c3.2,0,5.5-1.4,7-4.2
		c1.1-1.9,1.1-1.9,3.3-1.7C640.1,362.4,641,362.6,642,362.8z M628.6,353.8c2.3,0,4.6,0,6.9,0c1.1,0,1.4-0.4,1.2-1.4
		c-0.6-4.3-3.8-7.1-8-7.1c-4.3,0-7.6,2.7-8.4,7c-0.2,1.4-0.2,1.5,1.2,1.5C624,353.9,626.3,353.8,628.6,353.8z"/>
	<path class="st5" d="M267.8,356.7c-0.1-2.2,0.2-4.3,0.9-6.4c1.6-5.3,6.1-8.8,11.7-9.2c9-0.6,14.9,4.7,15.5,14
		c0.2,2.4-0.1,4.8-0.6,7.1c-1.4,5.6-5.8,9.4-11.5,10c-3.9,0.4-7.7-0.3-10.8-2.8c-3.5-2.8-4.7-6.7-5-11
		C267.8,357.8,267.8,357.3,267.8,356.7z M273.1,356.7c0,2.3,0.2,4.4,1.1,6.4c1.5,3.2,3.9,5,7.5,5c3.7,0.1,6.3-1.6,7.7-4.9
		c1.8-4.1,1.8-8.4,0.2-12.6c-1.3-3.5-4.3-5.3-8-5.3c-3.5,0.1-6.3,2.2-7.6,5.6C273.3,352.8,273,354.7,273.1,356.7z"/>
	<path class="st5" d="M364.3,356.6c-0.2-2.1,0.1-4.2,0.7-6.2c1.6-5.2,5.9-8.8,11.3-9.3c9.1-0.9,15.5,4.8,15.8,13.9
		c0.1,2.2,0,4.5-0.4,6.7c-1.2,5.8-5.5,9.8-11.3,10.5c-2.7,0.3-5.4,0.2-8-0.9c-5.1-2.2-7.4-6.3-8.1-11.6
		C364.2,358.7,364.3,357.6,364.3,356.6z M386.9,356.4c0.1-1.8-0.1-3.6-0.8-5.3c-1.3-3.7-4.4-5.8-8.2-5.8c-3.7,0.1-6.7,2.3-7.8,5.9
		c-1.1,3.6-1.1,7.3,0,10.9c1.2,3.9,4.3,6.1,8.2,6c3.8-0.1,6.7-2.4,7.9-6.2C386.8,360.2,386.9,358.3,386.9,356.4z"/>
	<path class="st5" d="M517.7,372.2c-1.7,0.1-3.4-0.1-5-0.6c-3.9-1.1-6.2-3.8-7.2-7.6c-0.2-0.8-0.2-1.4,0.9-1.5
		c0.6,0,1.1-0.2,1.6-0.3c1.9-0.3,2-0.3,2.7,1.6c0.6,1.5,1.6,2.8,3.1,3.5c2.7,1.2,5.4,1.1,8.2,0.1c1-0.4,1.8-1.1,2.3-2
		c1.1-2,0.5-4.1-1.6-5c-1.1-0.5-2.3-0.8-3.4-1.1c-2.5-0.7-5.1-1.3-7.6-2.2c-3.8-1.4-5.7-4-5.7-7.5c0-3.5,2.3-6.5,6.1-7.8
		c3.9-1.3,7.9-1.1,11.7,0.4c2.7,1,4.2,3.1,4.9,5.8c0.3,1,0,1.5-1.1,1.6c-0.6,0-1.3,0-1.9,0.2c-1.1,0.3-1.7,0.1-2.1-1.1
		c-0.7-2.2-2.5-3.2-4.7-3.4c-1.6-0.1-3.2-0.2-4.8,0.3c-1.9,0.6-3,1.8-3,3.3c-0.1,1.6,0.8,2.7,2.9,3.4c2,0.7,4,1.2,6,1.7
		c1.7,0.5,3.4,1,5,1.6c5,1.9,6.7,7,4,11.6c-2,3.3-5.2,4.6-8.8,5C519.3,372.3,518.5,372.2,517.7,372.2z"/>
	<path class="st5" d="M312.3,372.3c-1.6,0.1-3.2-0.1-4.7-0.5c-4-1-6.4-3.7-7.5-7.7c-0.3-1,0-1.5,1.1-1.6c0.5,0,0.9-0.2,1.4-0.3
		c2-0.3,2-0.3,2.8,1.7c0.4,1.1,1.1,2,2,2.7c2.3,1.8,7.6,2,10,0.4c1.3-0.9,2.2-2.2,2.1-3.8c-0.1-1.7-1.3-2.6-2.9-3.1
		c-2.5-0.7-5.1-1.4-7.6-2.2c-1.2-0.4-2.4-0.8-3.6-1.3c-2.8-1.2-4.4-3.4-4.6-6.5c-0.2-3,1-5.5,3.6-7.2c4.1-2.8,12.2-2.6,16.2,0.4
		c1.7,1.3,2.5,3.1,2.9,5.1c0.2,0.7-0.2,1.1-0.9,1.1c-0.5,0.1-1,0.1-1.4,0.1c-2.1,0.3-2.1,0.3-3.1-1.6c-0.3-0.5-0.6-1-1-1.3
		c-2.1-2.1-7.9-2.2-10.1-0.2c-1.8,1.6-1.6,3.9,0.5,5.2c1.1,0.7,2.4,0.9,3.6,1.3c2.7,0.8,5.4,1.6,8,2.4c3.3,1,5.4,3.1,5.7,6.7
		c0.2,3.5-1.2,6.2-4.1,8.1C318.1,371.9,315.3,372.4,312.3,372.3z"/>
	<path class="st5" d="M117.2,345.1c0.5,0.1,0.7-0.4,1-0.6c3.4-3.9,9.5-4.2,13.5-2.4c3.5,1.6,4.8,4.5,5,8.1c0.1,3.1,0.1,6.2,0.1,9.4
		c0,3.5,0,7,0,10.6c0,1.3-0.4,1.7-1.7,1.6c-4.1-0.1-3.5,0.4-3.5-3.4c0-4.9,0-9.8,0-14.6c0-0.9,0-1.8-0.1-2.6
		c-0.3-3.6-2.5-5.6-6.1-5.6c-3.9,0-6.6,2.2-7.5,6.1c-0.3,1.3-0.3,2.5-0.3,3.8c0,4.9,0,9.8,0,14.6c0,1.7,0,1.8-1.7,1.8
		c-4.1,0-3.4,0.4-3.4-3.4c0-8,0-16,0-24c0-2.9-0.3-2.6,2.8-2.6c0.2,0,0.3,0,0.5,0c1-0.1,1.5,0.3,1.4,1.4
		C117,343.7,116.8,344.4,117.2,345.1z"/>
	<path class="st5" d="M539.9,356.9c-0.1,1.8,0.1,3.7,0.6,5.5c1,3.3,3.5,5.5,6.6,5.7c4.2,0.4,7-1.4,8.1-5.5c0.5-1.9,0.7-1.9,2.6-1.6
		c3,0.4,3.1,0.5,2.1,3.3c-1.8,4.7-5.2,7.5-10.2,8c-5.6,0.5-10.5-1.1-13.1-6.4c-3.1-6.2-2.8-12.7,0.3-18.9c1-1.9,2.5-3.3,4.4-4.3
		c3.7-1.9,7.7-2.2,11.6-0.9c3.6,1.2,5.8,3.8,6.9,7.4c0.3,1,0.1,1.5-1,1.6c-0.7,0-1.4,0.2-2.1,0.4c-1,0.2-1.6-0.1-1.9-1.2
		c-1.1-3-3.2-4.7-6.5-4.7c-3.5,0-5.9,1.7-7.4,4.8C539.9,352.2,539.8,354.5,539.9,356.9z"/>
	<path class="st5" d="M74.3,356.8c0,2.1,0.2,4.2,0.9,6.1c1.2,3.4,4,5.2,7.6,5.1c3.5-0.1,5.8-1.8,6.9-5.5c0.6-2,0.6-2,2.8-1.7
		c2.8,0.4,2.9,0.6,1.9,3.3c-1.8,4.8-5.3,7.5-10.4,8c-5.6,0.5-10.4-1.3-13-6.6c-3-6.2-2.7-12.5,0.4-18.7c1-1.9,2.5-3.3,4.4-4.3
		c3.6-1.9,7.5-2.2,11.4-1.1c3.7,1.1,6,3.7,7.2,7.4c0.3,0.9,0.2,1.6-1,1.6c-0.6,0-1.1,0.2-1.6,0.3c-1.2,0.3-2,0.1-2.5-1.3
		c-0.9-2.7-2.9-4.3-5.9-4.4c-3.3-0.1-5.9,1.2-7.5,4.1C74.5,351.7,74.3,354.3,74.3,356.8z"/>
	<path class="st5" d="M336.8,331.3c0,3,0,5.5,0,8c0,2.5-0.2,2.4,2.3,2.4c0.2,0,0.5,0,0.7,0c2,0,2,0,2,2c0,2,0,2-2.2,2.1
		c-3.1,0-2.8-0.3-2.8,2.8c0,5,0,9.9,0,14.9c0,3.5,0.4,3.8,3.9,3.8c1,0,1.3,0.4,1.4,1.2c0.4,3.8,1.3,3.1-2.7,3.7
		c-1.3,0.2-2.6,0-3.8-0.4c-1.9-0.6-3.2-1.8-3.6-3.8c-0.2-1.3-0.3-2.5-0.3-3.8c0-5.4,0-10.7,0-16.1c0-2.1,0-2.1-2.2-2.2
		c-0.6,0-1.4,0.1-1.5-0.8c-0.1-1-0.4-2.1,0.3-3c0.5-0.6,1.4-0.3,2.1-0.3c1,0,1.4-0.3,1.4-1.4c-0.1-1.6,0-3.2,0-4.8
		c0-0.6,0-1.2,0.5-1.5C333.6,333.2,335,332.3,336.8,331.3z"/>
	<path class="st5" d="M205.4,350.8c0-6.2,0-12.5,0-18.7c0-1.7,0-1.8,1.7-1.8c4.2,0,3.4-0.2,3.4,3.2c0,11.7,0,23.5,0,35.2
		c0,0.5,0,1,0,1.4c0.1,1.1-0.3,1.6-1.5,1.6c-4.5-0.1-3.6,0.4-3.6-3.4C205.3,362.5,205.4,356.6,205.4,350.8z"/>
	<path class="st5" d="M351.3,345.3c1-0.4,1.2-1.1,1.7-1.7c2.3-2.8,6.3-3.4,9.2-1.4c0.6,0.4,0.7,0.8,0.5,1.4
		c-0.5,1.2-0.9,2.4-1.4,3.6c-0.8-0.3-1.5-0.6-2.1-0.7c-2.8-0.7-5.3,0.5-6.3,3.3c-0.7,2-1,4-1,6.1c0,4.4,0,8.8,0,13.2
		c0,3,0.2,2.6-2.8,2.6c-2.3,0-2.4,0-2.4-2.3c0-8.5,0-16.9,0-25.4c0-0.5,0-1,0-1.4c0-0.6,0.3-0.9,0.9-0.9c0.8,0,1.6,0,2.4,0
		c0.9,0,1.4,0.3,1.3,1.2C351.3,343.6,351.3,344.3,351.3,345.3z"/>
	<path class="st5" d="M602.1,345.2c0.5-0.6,0.9-1.3,1.4-1.8c2.2-2.6,6.4-3,9.1-1c1,0.7,0.3,1.5,0,2.1c-0.4,0.9-0.2,2.4-1.6,2.7
		c-0.4,0.1-0.9-0.3-1.3-0.5c-3.2-0.9-5.8,0.4-6.8,3.5c-0.6,1.7-0.8,3.4-0.8,5.2c0,4.7,0,9.4,0,14.2c0,2.2,0,2.2-2.3,2.2
		c-3.2,0-2.9,0.3-2.9-2.8c0-8.2,0-16.5,0-24.7c0-0.6,0-1.1,0-1.7c0-0.6,0.4-0.9,0.9-0.9c0.8,0,1.6,0,2.4,0c0.9,0,1.3,0.3,1.3,1.3
		c0,0.7,0,1.4,0,2.1C601.8,345.1,602,345.1,602.1,345.2z"/>
	<path class="st5" d="M460.3,345.5c1-0.6,1.3-1.2,1.6-1.7c2.5-3.5,6.3-3.1,9.2-1.6c0.7,0.4,0.8,0.9,0.6,1.6c-0.3,0.9-0.7,1.8-1,2.7
		c-0.2,0.6-0.6,0.9-1.3,0.5c-0.3-0.2-0.7-0.3-1.1-0.4c-2.9-0.8-5.5,0.5-6.5,3.4c-0.8,2.2-0.9,4.5-1,6.8c0,4.4,0,8.8,0,13.2
		c0,1.7-0.1,1.8-1.7,1.8c-3.8,0-3.3,0.4-3.3-3.1c0-8.1,0-16.1,0-24.2c0-0.6,0-1.3,0-1.9c0-0.4,0.2-0.8,0.7-0.8c1,0,2.1-0.1,3.1,0
		c0.6,0,0.7,0.6,0.7,1.1C460.4,343.6,460.3,344.4,460.3,345.5z"/>
	<path class="st5" d="M149.6,356.7c0,4.3,0,8.6,0,12.9c0,2,0,2.1-2.1,2.1c-3.4,0-3,0.4-3-2.9c0-8.3,0-16.6,0-24.9
		c0-2.3,0-2.3,2.4-2.3c3.1,0,2.8-0.3,2.8,2.9C149.6,348.6,149.6,352.7,149.6,356.7z"/>
	<path class="st5" d="M104.6,356.7c0,4.3,0,8.6,0,13c0,2,0,2.1-2.1,2.1c-3.1,0-2.9,0.4-2.9-2.8c0-8.2,0-16.3,0-24.5
		c0-0.6-0.1-1.1,0-1.7c0.3-2,1.9-0.9,2.9-1.1c0.8-0.1,2.1-0.6,2.1,1.1c0,0.6,0,1.3,0,1.9C104.6,348.7,104.6,352.7,104.6,356.7z"/>
	<path class="st5" d="M62.9,356.8c0,4.4,0,8.8,0,13.2c0,1.7,0,1.8-1.7,1.8c-3.8,0-3.2,0.4-3.3-3.1c0-8,0-16,0-24c0-0.4,0-0.8,0-1.2
		c0.1-1.8,0.1-1.8,2.4-1.8c2.5,0,2.5,0,2.5,1.7c0,0.8,0,1.6,0,2.4C62.9,349.4,62.9,353.1,62.9,356.8z"/>
	<path class="st5" d="M149.6,333.2c-0.1,3.4,0.5,3-3.1,3c-2,0-2,0-2-1.9c0-0.7,0-1.4,0-2.2c0-1.8,0-1.8,1.9-1.8c0.1,0,0.2,0,0.2,0
		C150.3,330.3,149.6,330.2,149.6,333.2z"/>
	<path class="st5" d="M104.6,333.3c0,3.2,0.4,2.9-2.9,2.9c-2,0-2,0-2.1-2.1c0-0.6,0-1.3,0-1.9c0-1.8,0.1-1.8,1.9-1.8
		C105.1,330.4,104.6,330,104.6,333.3z"/>
	<path class="st5" d="M62.9,333.5c0,0.4,0,0.8,0,1.2c0.1,1.3-0.5,1.6-1.7,1.6c-3.9-0.1-3.3,0.4-3.3-3.2c0-2.9-0.3-2.6,2.7-2.6
		c2.2,0,2.2,0,2.3,2.1C62.9,332.8,62.9,333.1,62.9,333.5z"/>
	<path class="st0" d="M192.4,356.8c0.1,1.8,0.2,3.3-0.1,4.8c-1.2,6.6-9.3,8-12.9,5.9c-1.5-0.9-2.3-2.2-2.3-3.9c0-1.8,1-3.2,2.6-3.9
		c0.7-0.3,1.5-0.6,2.3-0.7C185.4,358.4,188.8,357.9,192.4,356.8z"/>
	<path class="st0" d="M577.2,353.8c-2.3,0-4.6,0-6.9,0c-1.1,0-1.3-0.5-1.2-1.5c0.5-4.1,4.2-7.1,8.6-7c4.1,0.1,7.4,3.2,7.8,7.3
		c0.1,1.1-0.5,1.2-1.3,1.2C581.8,353.8,579.5,353.8,577.2,353.8C577.2,353.8,577.2,353.8,577.2,353.8z"/>
	<path class="st0" d="M487.2,353.8c-2.3,0-4.6,0-6.9,0c-0.9,0-1.3-0.3-1.2-1.3c0.7-5.3,6.2-8.7,11.2-6.9c3,1.1,5.1,4,5.3,7.1
		c0.1,1-0.6,1-1.2,1c-0.2,0-0.3,0-0.5,0C491.7,353.8,489.4,353.8,487.2,353.8z"/>
	<path class="st0" d="M628.6,353.8c-2.3,0-4.6,0-6.9,0c-1.4,0-1.5-0.2-1.2-1.5c0.7-4.3,4-7,8.4-7c4.2,0,7.3,2.8,8,7.1
		c0.2,1-0.1,1.5-1.2,1.4C633.2,353.8,630.9,353.8,628.6,353.8z"/>
	<path class="st0" d="M273.1,356.7c-0.1-1.9,0.2-3.9,0.9-5.8c1.3-3.4,4.1-5.5,7.6-5.6c3.7-0.1,6.7,1.8,8,5.3
		c1.6,4.2,1.6,8.5-0.2,12.6c-1.4,3.3-4.1,5-7.7,4.9c-3.6-0.1-6-1.9-7.5-5C273.3,361.1,273,358.9,273.1,356.7z"/>
	<path class="st0" d="M386.9,356.4c0.1,1.9-0.1,3.8-0.6,5.5c-1.2,3.8-4.1,6.1-7.9,6.2c-3.9,0.1-7.1-2.1-8.2-6
		c-1.1-3.6-1.1-7.3,0-10.9c1.1-3.7,4.1-5.9,7.8-5.9c3.8-0.1,6.9,2.1,8.2,5.8C386.8,352.8,386.9,354.6,386.9,356.4z"/>
	<path class="st1" d="M237.9,143.2c-0.5-13.5,11.3-27.3,27.6-27.2c13.8,0.1,27.4,10.7,27.4,28c0,15.5-13.6,26.8-27.3,26.8
		C249.9,170.7,237.3,157.5,237.9,143.2z M286.1,143.4c0.6-10.8-9.4-20.8-20.7-20.8c-10.7,0-21.1,8.9-21.1,20.8
		c0.1,12.8,11.1,20.4,20.1,20.7C277.7,164.4,286.5,153.8,286.1,143.4z"/>
	<path class="st1" d="M265,154.5c-6.5-0.1-11.2-4.9-11.2-11.3c0-6.3,5.1-11,11.5-10.9c6,0.1,11,5.2,10.9,11.2
		C276.1,150.2,270.1,154.8,265,154.5z M265,135.1c-4.8,0-8.4,3.5-8.5,8.2c-0.1,4.8,3.4,8.3,8.2,8.5c4.5,0.1,8.5-3.1,8.6-8.3
		C273.5,138.4,269.1,134.8,265,135.1z"/>
</g>
</svg>
